<?xml version="1.0" encoding="UTF-8"?>
<svg width="512px" height="512px" viewBox="0 0 512 512" version="1.1" xmlns="http://www.w3.org/2000/svg" xmlns:xlink="http://www.w3.org/1999/xlink">
<style>
    @media (prefers-color-scheme: dark) {
        stroke-width: 0;
    }
</style>
    <title>Logo</title>
    <g id="Light-512" stroke="none" stroke-width="1" fill="none" fill-rule="evenodd">
        <g id="Daisy-Logo" transform="translate(3.1717, -2.7266)">
            <path d="M255.182327,20.2325112 C264.47339,20.2325112 273.390297,22.7718843 281.436411,28.2829616 C288.024755,32.7955593 294.158185,39.4300215 299.066476,48.9490904 C302.960159,56.5004431 306.18337,66.2483464 308.175485,78.6072779 L308.276,79.243 L308.426878,79.0721311 C316.783777,69.6276064 324.701896,63.0503589 331.977694,58.7092255 L332.388844,58.4658849 C341.57836,53.0711907 350.218429,50.7870346 358.110106,50.5406446 C367.712434,50.2408454 376.492753,52.8902075 384.322286,57.970717 C392.118263,63.0294544 398.215129,70.0154602 401.961032,79.0205126 C405.027804,86.3929516 406.556513,95.2979812 405.483996,105.956158 C404.649547,114.248513 402.121402,123.963104 397.242058,135.139875 L397.185,135.267 L397.315614,135.230212 C408.816052,131.940283 418.56988,130.66395 426.721426,130.828492 L427.199082,130.839828 C437.853208,131.130691 446.391755,133.769048 453.214848,137.738662 C461.520983,142.571097 467.564579,149.47049 471.511828,157.928654 C475.441808,166.349814 476.908417,175.50593 475.308753,185.12981 C473.999776,193.004858 470.574229,201.365527 464.01299,209.835269 C458.712132,216.678017 451.049198,223.85417 440.376364,231.011941 L440.206,231.125 L440.76151,231.290525 C452.5271,234.829161 461.619931,239.143502 468.499149,243.807412 L468.893574,244.076869 C477.674019,250.121375 483.399008,256.983992 486.959042,264.029197 C491.29291,272.605796 492.602039,281.684826 491.301607,290.930518 C490.007635,300.130278 486.248335,308.606405 479.661993,315.806068 C474.274086,321.695697 466.847189,326.840963 456.732397,330.372034 C448.557949,333.225732 438.221142,335.073424 425.3704,335.267971 L425.333,335.268 L425.642815,335.629975 C433.688573,345.090417 439.021518,353.734624 442.274355,361.452274 L442.456261,361.888132 C446.526908,371.739346 447.588176,380.61335 446.73342,388.462102 C445.693385,398.012182 441.843933,406.338251 435.714484,413.383764 C429.617943,420.391448 421.849186,425.451768 412.406004,427.90431 C404.678877,429.911165 395.647965,430.183957 385.242909,427.641477 C376.98688,425.624114 367.512176,421.660278 356.873332,415.055854 L356.375,414.745 L356.410194,415.007288 C358.061143,427.507797 357.833861,437.795902 356.339151,446.132089 L356.253196,446.601866 C354.297755,457.077685 350.351944,465.09667 345.357532,471.213304 C339.283011,478.652745 331.520429,483.538179 322.544285,486.109998 C313.613935,488.668696 304.34274,488.684035 295.088776,485.602733 C287.512511,483.080057 279.788281,478.39284 272.445904,470.596136 C266.730241,464.526803 261.051845,456.247305 255.811518,445.235594 L255.762,445.132 L255.672708,445.32562 C250.611238,456.15922 245.174659,464.353896 239.701119,470.394592 L239.379106,470.747446 C232.168269,478.592528 224.572763,483.301899 217.096601,485.843469 C208.002273,488.935144 198.831033,488.967121 189.857633,486.396089 C180.924621,483.836627 173.052194,478.938461 166.836789,471.423316 C161.747459,465.269724 157.680738,457.201399 155.588044,446.697028 C153.896948,438.208499 153.503835,427.719657 155.09976,414.972498 L155.12,414.806 L154.545957,415.171258 C144.154064,421.722529 134.929846,425.749253 126.893649,427.877218 L126.431341,427.997883 C116.110344,430.652459 107.175385,430.468286 99.5219883,428.531758 C90.2070462,426.174811 82.4963481,421.208577 76.3704023,414.167094 C70.2704633,407.155501 66.3358016,398.759009 65.2188451,389.068769 C64.3046161,381.137306 65.2913873,372.156079 69.2624963,362.206155 C72.4354406,354.256095 77.7394802,345.356056 85.8711208,335.660631 L86.116,335.369 L85.9834905,335.368541 C73.3693558,335.262732 63.2082807,333.60698 55.1573766,330.968725 L54.7039164,330.818344 C44.5985461,327.427073 37.2038433,322.40836 31.8394606,316.617878 C25.3085382,309.568197 21.5465914,301.202563 20.2463661,291.958344 C18.9521931,282.757155 20.2282689,273.572663 24.5740241,264.836632 C28.1293071,257.689643 33.8503191,250.696518 42.6012127,244.515026 C49.5411224,239.612783 58.750799,235.068264 70.7185655,231.378248 L71.183,231.236 L70.9308005,231.069422 C60.408096,224.114905 52.7879505,217.195438 47.4732968,210.600658 L47.1749256,210.227717 C40.5452853,201.880314 37.077727,193.643262 35.734409,185.864137 C34.0994602,176.396184 35.5035876,167.33124 39.4525833,158.869332 C43.3808687,150.451804 49.4542994,143.445975 57.8573292,138.486314 C64.7319215,134.428772 73.3382823,131.678799 84.0423236,131.257021 C92.3742632,130.928713 102.350707,132.078363 114.102899,135.350253 L114.138,135.36 L114.040366,135.141883 C109.178214,124.216907 106.555473,114.740377 105.583812,106.649425 L105.528555,106.175084 C104.333121,95.5843302 105.76064,86.7618221 108.747439,79.4524758 C112.380752,70.56097 118.37629,63.619201 126.209952,58.53601 C134.001924,53.4798736 142.864005,50.7560675 152.615969,50.9993062 C160.597882,51.1983953 169.354602,53.4237776 178.655798,58.7338332 C186.092795,62.9796169 194.174185,69.4662319 202.650354,78.8611892 L203.019,79.272 L203.023562,79.246808 C204.884817,66.7760691 207.941204,56.9492875 211.67757,49.3477951 L211.889785,48.9198957 C216.658296,39.3904984 222.661902,32.770169 229.148829,28.2669601 C237.038653,22.7898636 245.846454,20.2325112 255.182327,20.2325112 Z" id="Combined-Shape" stroke="#000000" stroke-width="40" fill="#F7F7F9" transform="translate(255.773, 254.2325) rotate(12) translate(-255.773, -254.2325)"></path>
            <ellipse id="Oval" fill="#EF9609" cx="255.349722" cy="253.881729" rx="81.2750519" ry="81.5599583"></ellipse>
        </g>
    </g>
</svg>