<?xml version="1.0" encoding="UTF-8"?>
<!-- Generated by Pixelmator Pro 3.6.13 -->
<svg width="564" height="339" viewBox="0 0 564 339" xmlns="http://www.w3.org/2000/svg">
    <g id="Group">
        <path id="Path" fill="#009454" stroke="none" d="M 0.040009 0.740997 L 563.039978 0.740997 L 563.039978 338.740997 L 0.040009 338.740997 Z"/>
        <path id="path1" fill="#ffffff" stroke="none" d="M 42.996002 102.65799 L 42.996002 39.617004 L 20.480988 39.617004 L 20.480988 26.781006 L 80.778992 26.781006 L 80.778992 39.617004 L 58.31601 39.617004 L 58.31601 102.65799 Z"/>
        <path id="path2" fill="#ffffff" stroke="none" d="M 104.52301 26.781006 L 104.52301 54.678009 C 109.214996 49.192017 114.822998 46.449005 121.343994 46.449005 C 124.690979 46.449005 127.710022 47.070007 130.401978 48.312012 C 133.093018 49.554016 135.119995 51.141998 136.482971 53.074005 C 137.846008 55.007019 138.778015 57.145996 139.278015 59.492004 C 139.778015 61.838989 140.028992 65.479004 140.028992 70.412994 L 140.028992 102.65799 L 125.484985 102.65799 L 125.484985 73.622009 C 125.484985 67.859985 125.208984 64.201996 124.656982 62.648987 C 124.104004 61.096008 123.129028 59.863007 121.732971 58.949005 C 120.335022 58.035004 118.583984 57.576996 116.479004 57.576996 C 114.062988 57.576996 111.907013 58.164001 110.009003 59.337006 C 108.110992 60.51001 106.722992 62.278992 105.84201 64.641998 C 104.963013 67.005981 104.52301 70.5 104.52301 75.122986 L 104.52301 102.65799 L 89.979004 102.65799 L 89.979004 26.781006 L 104.52301 26.781006 Z"/>
        <path id="path3" fill="#ffffff" stroke="none" d="M 186.08197 85.164001 L 200.573975 87.596985 C 198.710999 92.911011 195.768005 96.957001 191.75 99.734985 C 187.729004 102.511993 182.700012 103.901001 176.661987 103.901001 C 167.103027 103.901001 160.030029 100.778015 155.440979 94.531982 C 151.817993 89.528992 150.007019 83.214996 150.007019 75.588989 C 150.007019 66.480011 152.388 59.346008 157.148987 54.187988 C 161.911011 49.028992 167.93103 46.449005 175.213013 46.449005 C 183.390015 46.449005 189.843018 49.149994 194.570007 54.549011 C 199.296997 59.950012 201.557007 68.222992 201.349976 79.367004 L 164.913025 79.367004 C 165.015991 83.681 166.189026 87.036011 168.432007 89.43399 C 170.674988 91.833008 173.469971 93.031006 176.817017 93.031006 C 179.094971 93.031006 181.01001 92.410004 182.562012 91.167999 C 184.11499 89.925995 185.288025 87.924988 186.08197 85.164001 M 186.909973 70.464996 C 186.80603 66.255981 185.719971 63.056 183.648987 60.863007 C 181.578979 58.673004 179.059021 57.576996 176.093018 57.576996 C 172.91803 57.576996 170.296021 58.734009 168.224976 61.044983 C 166.155029 63.358002 165.137024 66.497009 165.171997 70.464996 L 186.909973 70.464996 Z"/>
        <path id="path4" fill="#ffffff" stroke="none" d="M 61.213989 178.761002 L 61.213989 165.977005 L 94.234985 165.977005 L 94.234985 196.203003 C 91.026001 199.309006 86.376007 202.044006 80.286987 204.406998 C 74.196014 206.770004 68.028015 207.951996 61.78299 207.951996 C 53.846985 207.951996 46.928986 206.287994 41.028015 202.957001 C 35.127991 199.628006 30.692993 194.865997 27.72699 188.671997 C 24.759003 182.479996 23.276001 175.742004 23.276001 168.460999 C 23.276001 160.559998 24.932007 153.537994 28.243988 147.395996 C 31.557007 141.253998 36.403992 136.544006 42.787994 133.266006 C 47.653015 130.746994 53.709015 129.488007 60.954987 129.488007 C 70.375 129.488007 77.733002 131.462997 83.028992 135.414001 C 88.325989 139.365005 91.734009 144.824997 93.252014 151.794998 L 78.035004 154.641998 C 76.964996 150.914993 74.954987 147.973999 72.006012 145.817001 C 69.054993 143.660995 65.371002 142.582001 60.954987 142.582001 C 54.260986 142.582001 48.938995 144.703995 44.988007 148.949005 C 41.036011 153.192993 39.062012 159.490005 39.062012 167.839996 C 39.062012 176.845993 41.062988 183.600006 45.06601 188.104004 C 49.067993 192.606003 54.312988 194.858002 60.799988 194.858002 C 64.009003 194.858002 67.226013 194.229004 70.453003 192.968994 C 73.678986 191.709 76.446991 190.182999 78.76001 188.388 L 78.76001 178.761002 L 61.213989 178.761002 Z"/>
        <path id="path5" fill="#ffffff" stroke="none" d="M 118.601013 168.460999 L 105.403015 166.080002 C 106.885986 160.766998 109.440002 156.832993 113.062988 154.279999 C 116.685974 151.727005 122.06897 150.449997 129.210999 150.449997 C 135.697998 150.449997 140.528992 151.218002 143.703979 152.751999 C 146.877014 154.287994 149.112 156.238998 150.406982 158.602005 C 151.700012 160.964996 152.346985 165.304001 152.346985 171.617996 L 152.192017 188.595001 C 152.192017 193.425995 152.424011 196.988998 152.890991 199.283005 C 153.356018 201.578003 154.22699 204.035995 155.504028 206.658005 L 141.116028 206.658005 C 140.736023 205.692993 140.27002 204.261002 139.718018 202.363007 C 139.476013 201.5 139.304016 200.931 139.200989 200.654999 C 136.716003 203.070999 134.059021 204.882004 131.22998 206.089005 C 128.400024 207.296005 125.380981 207.901001 122.171997 207.901001 C 116.513 207.901001 112.053009 206.365997 108.792999 203.294006 C 105.532013 200.223999 103.902008 196.341995 103.902008 191.649002 C 103.902008 188.542999 104.643005 185.774002 106.127014 183.341995 C 107.610992 180.908005 109.690002 179.044998 112.364014 177.751999 C 115.037994 176.457001 118.893982 175.328003 123.932007 174.362 C 130.729004 173.085007 135.439026 171.895004 138.062012 170.789993 L 138.062012 169.341003 C 138.062012 166.546005 137.372009 164.552994 135.992004 163.363998 C 134.611023 162.171997 132.005981 161.576996 128.176025 161.576996 C 125.588013 161.576996 123.570007 162.087006 122.120972 163.104004 C 120.671021 164.121994 119.497986 165.908005 118.601013 168.460999 M 138.062012 180.261993 C 136.198975 180.882996 133.249023 181.625 129.210999 182.488007 C 125.174011 183.350998 122.534973 184.195999 121.291992 185.024002 C 119.393982 186.369003 118.445984 188.076996 118.445984 190.147995 C 118.445984 192.184006 119.205017 193.944 120.723022 195.427002 C 122.241028 196.910995 124.172974 197.653 126.52002 197.653 C 129.142029 197.653 131.643982 196.789993 134.025024 195.065002 C 135.784973 193.753998 136.940002 192.149994 137.492981 190.251007 C 137.872009 189.009003 138.062012 186.645996 138.062012 183.160004 L 138.062012 180.261993 Z"/>
        <path id="path6" fill="#ffffff" stroke="none" d="M 180.078003 206.658005 L 165.533997 206.658005 L 165.533997 151.690994 L 179.04303 151.690994 L 179.04303 159.507004 C 181.354004 155.815002 183.432983 153.382996 185.278992 152.209 C 187.125 151.035995 189.221985 150.449005 191.567993 150.449005 C 194.880981 150.449005 198.072021 151.363998 201.143005 153.192001 L 196.640015 165.873001 C 194.190002 164.285995 191.913025 163.492004 189.807983 163.492004 C 187.771973 163.492004 186.046997 164.054001 184.632996 165.173996 C 183.218018 166.296005 182.104004 168.322998 181.294983 171.255997 C 180.482971 174.188995 180.078003 180.330994 180.078003 189.681 L 180.078003 206.658005 Z"/>
        <path id="path7" fill="#ffffff" stroke="none" d="M 257.286987 206.658005 L 243.778992 206.658005 L 243.778992 198.584 C 241.534973 201.723999 238.888 204.061996 235.833008 205.597 C 232.781006 207.130997 229.700012 207.899994 226.594971 207.899994 C 220.281006 207.899994 214.872009 205.356003 210.367981 200.264999 C 205.866028 195.175995 203.61499 188.076996 203.61499 178.966995 C 203.61499 169.651001 205.804993 162.569 210.187988 157.720001 C 214.570007 152.873993 220.107971 150.449005 226.802002 150.449005 C 232.94397 150.449005 238.257019 153.003006 242.742981 158.108994 L 242.742981 130.781006 L 257.286987 130.781006 L 257.286987 206.658005 Z M 218.468994 177.983994 C 218.468994 183.850006 219.280029 188.093994 220.901978 190.716003 C 223.247009 194.511993 226.526001 196.410004 230.736023 196.410004 C 234.08197 196.410004 236.929016 194.985992 239.276001 192.139999 C 241.620972 189.292999 242.794983 185.041 242.794983 179.380997 C 242.794983 173.067001 241.656006 168.520996 239.379028 165.744003 C 237.10199 162.966003 234.185974 161.576996 230.632019 161.576996 C 227.18103 161.576996 224.291992 162.949005 221.961975 165.690994 C 219.633972 168.436005 218.468994 172.533005 218.468994 177.983994"/>
        <path id="path8" fill="#ffffff" stroke="none" d="M 302.924988 189.164001 L 317.416992 191.597 C 315.554016 196.910995 312.611023 200.957001 308.593018 203.735001 C 304.572021 206.511993 299.54303 207.901001 293.505005 207.901001 C 283.945984 207.901001 276.872986 204.778 272.283997 198.531998 C 268.661011 193.529007 266.849976 187.214996 266.849976 179.589005 C 266.849976 170.479996 269.231018 163.345993 273.992004 158.188004 C 278.754028 153.029007 284.773987 150.449005 292.05603 150.449005 C 300.232971 150.449005 306.685974 153.149994 311.413025 158.548996 C 316.140015 163.949997 318.400024 172.223007 318.192993 183.367004 L 281.755981 183.367004 C 281.859009 187.681 283.031982 191.035995 285.275024 193.434006 C 287.518005 195.832993 290.312988 197.031006 293.659973 197.031006 C 295.937988 197.031006 297.853027 196.410004 299.405029 195.167999 C 300.958008 193.925995 302.130981 191.925003 302.924988 189.164001 M 303.752991 174.464996 C 303.648987 170.255997 302.562988 167.056 300.492004 164.863007 C 298.421997 162.673004 295.901978 161.576996 292.935974 161.576996 C 289.760986 161.576996 287.138977 162.733994 285.067993 165.044998 C 282.997986 167.358002 281.97998 170.496994 282.015015 174.464996 L 303.752991 174.464996 Z"/>
        <path id="path9" fill="#ffffff" stroke="none" d="M 379.513977 206.658005 L 364.969971 206.658005 L 364.969971 178.604996 C 364.969971 172.671005 364.659973 168.832001 364.038025 167.089996 C 363.416992 165.347 362.40802 163.992996 361.010986 163.026001 C 359.612976 162.059998 357.93103 161.576996 355.963989 161.576996 C 353.445007 161.576996 351.184998 162.266998 349.184021 163.647003 C 347.182007 165.028 345.810974 166.856003 345.070007 169.134003 C 344.325989 171.410995 343.955994 175.621002 343.955994 181.761993 L 343.955994 206.658005 L 329.411987 206.658005 L 329.411987 151.690994 L 342.921021 151.690994 L 342.921021 159.764999 C 347.71698 153.554001 353.755005 150.449005 361.036011 150.449005 C 364.244995 150.449005 367.177979 151.026993 369.835022 152.182999 C 372.492004 153.339996 374.500977 154.813995 375.86499 156.608002 C 377.228027 158.403 378.176025 160.438004 378.711975 162.716003 C 379.245972 164.992996 379.513977 168.253998 379.513977 172.498001 L 379.513977 206.658005 Z"/>
        <path id="path10" fill="#ffffff" stroke="none" d="M 425.567017 189.164001 L 440.059021 191.597 C 438.195984 196.910995 435.252991 200.957001 431.234985 203.735001 C 427.213989 206.511993 422.184998 207.901001 416.146973 207.901001 C 406.588013 207.901001 399.515015 204.778 394.926025 198.531998 C 391.302979 193.529007 389.492004 187.214996 389.492004 179.589005 C 389.492004 170.479996 391.872986 163.345993 396.633972 158.188004 C 401.395996 153.029007 407.416016 150.449005 414.697998 150.449005 C 422.875 150.449005 429.328003 153.149994 434.054993 158.548996 C 438.781982 163.949997 441.041992 172.223007 440.835022 183.367004 L 404.39801 183.367004 C 404.500977 187.681 405.674011 191.035995 407.916992 193.434006 C 410.159973 195.832993 412.955017 197.031006 416.302002 197.031006 C 418.580017 197.031006 420.494995 196.410004 422.046997 195.167999 C 423.599976 193.925995 424.77301 191.925003 425.567017 189.164001 M 426.39502 174.464996 C 426.291016 170.255997 425.205017 167.056 423.133972 164.863007 C 421.064026 162.673004 418.544006 161.576996 415.578003 161.576996 C 412.403015 161.576996 409.781006 162.733994 407.710022 165.044998 C 405.640015 167.358002 404.622009 170.496994 404.656982 174.464996 L 426.39502 174.464996 Z"/>
        <path id="path11" fill="#ffffff" stroke="none" d="M 466.080994 206.658005 L 451.536987 206.658005 L 451.536987 151.690994 L 465.046021 151.690994 L 465.046021 159.507004 C 467.356995 155.815002 469.435974 153.382996 471.281982 152.209 C 473.127991 151.035995 475.224976 150.449005 477.570984 150.449005 C 480.883972 150.449005 484.075012 151.363998 487.145996 153.192001 L 482.643005 165.873001 C 480.192993 164.285995 477.916016 163.492004 475.810974 163.492004 C 473.775024 163.492004 472.049988 164.054001 470.635986 165.173996 C 469.221008 166.296005 468.106995 168.322998 467.297974 171.255997 C 466.486023 174.188995 466.080994 180.330994 466.080994 189.681 L 466.080994 206.658005 Z"/>
        <path id="path12" fill="#ffffff" stroke="none" d="M 487.754028 190.975998 L 502.349976 188.75 C 502.971008 191.580002 504.22998 193.727997 506.127991 195.194 C 508.025024 196.662003 510.682983 197.393997 514.098999 197.393997 C 517.859009 197.393997 520.689026 196.705002 522.586975 195.324005 C 523.862976 194.358002 524.502014 193.063995 524.502014 191.442001 C 524.502014 190.337997 524.156006 189.423004 523.46698 188.699005 C 522.742004 188.009003 521.119995 187.371002 518.60199 186.783997 C 506.869019 184.195999 499.434021 181.832001 496.294006 179.692993 C 491.945984 176.725998 489.77301 172.602005 489.77301 167.322998 C 489.77301 162.561005 491.651978 158.559006 495.414001 155.315002 C 499.174988 152.072006 505.005981 150.449997 512.90802 150.449997 C 520.429993 150.449997 526.02002 151.675003 529.677979 154.123993 C 533.335022 156.574997 535.854004 160.197998 537.234009 164.994003 L 523.518982 167.529999 C 522.932007 165.391006 521.817993 163.751007 520.179993 162.613007 C 518.541016 161.473999 516.203003 160.904999 513.166992 160.904999 C 509.336975 160.904999 506.593994 161.440002 504.937988 162.509003 C 503.833008 163.268997 503.281006 164.251999 503.281006 165.459 C 503.281006 166.494995 503.763977 167.373993 504.731018 168.098999 C 506.041016 169.065994 510.570007 170.427994 518.315979 172.188004 C 526.062988 173.947998 531.471985 176.104996 534.54303 178.658005 C 537.578979 181.246002 539.098022 184.852005 539.098022 189.475006 C 539.098022 194.513 536.992004 198.843002 532.78302 202.466003 C 528.572998 206.089005 522.344971 207.901001 514.098999 207.901001 C 506.609985 207.901001 500.684998 206.382996 496.320007 203.345993 C 491.953979 200.309998 489.099976 196.186996 487.754028 190.975998"/>
        <path id="path13" fill="#ffffff" stroke="none" d="M 61.213989 282.760986 L 61.213989 269.97699 L 94.234985 269.97699 L 94.234985 300.203003 C 91.026001 303.30899 86.376007 306.044006 80.286987 308.407013 C 74.196014 310.769989 68.028015 311.951996 61.78299 311.951996 C 53.846985 311.951996 46.928986 310.287994 41.028015 306.957001 C 35.127991 303.627991 30.692993 298.865997 27.72699 292.671997 C 24.759003 286.480011 23.276001 279.742004 23.276001 272.460999 C 23.276001 264.559998 24.932007 257.537994 28.243988 251.395996 C 31.557007 245.253998 36.403992 240.544006 42.787994 237.265991 C 47.653015 234.746994 53.709015 233.488007 60.954987 233.488007 C 70.375 233.488007 77.733002 235.463013 83.028992 239.414001 C 88.325989 243.365997 91.734009 248.825012 93.252014 255.795013 L 78.035004 258.641998 C 76.964996 254.915009 74.954987 251.973999 72.006012 249.816986 C 69.054993 247.661011 65.371002 246.582001 60.954987 246.582001 C 54.260986 246.582001 48.938995 248.70401 44.988007 252.949005 C 41.036011 257.192993 39.062012 263.48999 39.062012 271.839996 C 39.062012 280.846008 41.062988 287.600006 45.06601 292.104004 C 49.067993 296.605988 54.312988 298.858002 60.799988 298.858002 C 64.009003 298.858002 67.226013 298.229004 70.453003 296.968994 C 73.678986 295.709015 76.446991 294.183014 78.76001 292.388 L 78.76001 282.760986 L 61.213989 282.760986 Z"/>
        <path id="path14" fill="#ffffff" stroke="none" d="M 143.911011 310.65799 L 143.911011 302.428986 C 141.908997 305.362 139.278015 307.674011 136.018005 309.364014 C 132.757019 311.053986 129.315002 311.899994 125.692017 311.899994 C 122 311.899994 118.687012 311.088989 115.755005 309.467987 C 112.821014 307.846008 110.699005 305.569 109.389008 302.635986 C 108.076996 299.703003 107.421997 295.64801 107.421997 290.471985 L 107.421997 255.69101 L 121.966003 255.69101 L 121.966003 280.949005 C 121.966003 288.678986 122.231995 293.415009 122.768005 295.156006 C 123.302979 296.898987 124.276978 298.279999 125.692017 299.296997 C 127.106018 300.315002 128.901001 300.824005 131.075012 300.824005 C 133.559021 300.824005 135.784973 300.143005 137.752014 298.778992 C 139.718994 297.416992 141.064026 295.726013 141.789001 293.707001 C 142.513977 291.688995 142.875977 286.746002 142.875977 278.878998 L 142.875977 255.69101 L 157.419983 255.69101 L 157.419983 310.65799 L 143.911011 310.65799 Z"/>
        <path id="path15" fill="#ffffff" stroke="none" d="M 171.952026 234.781006 L 186.495972 234.781006 L 186.495972 248.238007 L 171.952026 248.238007 L 171.952026 234.781006 Z M 171.952026 255.691986 L 186.495972 255.691986 L 186.495972 310.658997 L 171.952026 310.658997 L 171.952026 255.691986 Z"/>
        <path id="path16" fill="#ffffff" stroke="none" d="M 200.872009 234.781006 L 215.416016 234.781006 L 215.416016 310.65799 L 200.872009 310.65799 Z"/>
        <path id="path17" fill="#ffffff" stroke="none" d="M 280.203003 310.658997 L 266.695007 310.658997 L 266.695007 302.584991 C 264.450989 305.725006 261.804016 308.062988 258.749023 309.597992 C 255.697021 311.131989 252.616028 311.901001 249.510986 311.901001 C 243.197021 311.901001 237.788025 309.356995 233.283997 304.265991 C 228.781982 299.177002 226.531006 292.078003 226.531006 282.967987 C 226.531006 273.652008 228.721008 266.570007 233.104004 261.721008 C 237.486023 256.875 243.023987 254.450012 249.718018 254.450012 C 255.859985 254.450012 261.172974 257.003998 265.658997 262.109985 L 265.658997 234.781998 L 280.203003 234.781998 L 280.203003 310.658997 Z M 241.38501 281.984009 C 241.38501 287.850006 242.195984 292.093994 243.817993 294.716003 C 246.163025 298.511993 249.442017 300.410004 253.651978 300.410004 C 256.997986 300.410004 259.844971 298.985992 262.192017 296.140015 C 264.536987 293.292999 265.710999 289.040985 265.710999 283.381012 C 265.710999 277.066986 264.572021 272.520996 262.294983 269.743988 C 260.018005 266.966003 257.10199 265.576996 253.547974 265.576996 C 250.096985 265.576996 247.208008 266.949005 244.877991 269.69101 C 242.549988 272.434998 241.38501 276.533997 241.38501 281.984009"/>
        <path id="path18" fill="#ffffff" stroke="none" d="M 280.195007 310.661011 L 266.684998 310.661011 L 266.684998 302.591003 C 264.445007 305.730988 261.794983 308.071014 258.734985 309.601013 C 255.684998 311.131012 252.60498 311.901001 249.494995 311.901001 C 243.184998 311.901001 237.775024 309.360992 233.265015 304.270996 C 228.765015 299.181 226.515015 292.080994 226.515015 282.971008 C 226.515015 273.860992 228.705017 266.571014 233.085022 261.721008 C 237.465027 256.871002 243.005005 254.450989 249.695007 254.450989 C 255.835022 254.450989 261.155029 257.001007 265.63501 262.110992 L 265.63501 234.781006 L 280.174988 234.781006 L 280.174988 310.661011 L 280.195007 310.661011 Z M 241.375 281.990997 C 241.375 287.860992 242.184998 292.101013 243.804993 294.721008 C 246.155029 298.520996 249.424988 300.411011 253.63501 300.411011 C 256.984985 300.411011 259.825012 298.990997 262.174988 296.140991 C 264.525024 293.290985 265.695007 289.040985 265.695007 283.381012 C 265.695007 277.071014 264.554993 272.520996 262.275024 269.740997 C 259.994995 266.960999 257.085022 265.571014 253.525024 265.571014 C 249.965027 265.571014 247.184998 266.94101 244.85498 269.681 C 242.525024 272.42099 241.36499 276.520996 241.36499 281.971008 L 241.375 281.990997 Z"/>
        <path id="path19" fill="#ffffff" stroke="none" d="M 291.625 249.911011 L 291.625 237.341003 L 287.13501 237.341003 L 287.13501 234.781006 L 299.155029 234.781006 L 299.155029 237.341003 L 294.674988 237.341003 L 294.674988 249.911011 Z"/>
        <path id="path20" fill="#ffffff" stroke="none" d="M 300.974976 249.911011 L 300.974976 234.781006 L 305.544983 234.781006 L 308.284973 245.101013 L 310.994995 234.781006 L 315.575012 234.781006 L 315.575012 249.911011 L 312.734985 249.911011 L 312.734985 238.001007 L 309.734985 249.911011 L 306.794983 249.911011 L 303.804993 238.001007 L 303.804993 249.911011 L 300.965027 249.911011 Z"/>
    </g>
</svg>
