<?xml version="1.0" encoding="UTF-8"?>
<!-- Generated by Pixelmator Pro 3.6.13 -->
<svg width="800" height="481" viewBox="0 0 800 481" xmlns="http://www.w3.org/2000/svg">
    <g id="Group">
        <path id="Path" fill="#009454" stroke="none" d="M 0 0.598907 L 799.999939 0.598907 L 799.999939 480.883087 L 0 480.883087 Z"/>
        <g id="g1">
            <path id="path1" fill="#ffffff" stroke="none" d="M 80.435295 150.015167 L 80.435295 64.925995 L 50.045795 64.925995 L 50.045795 47.600677 L 131.432632 47.600677 L 131.432632 64.925995 L 101.113373 64.925995 L 101.113373 150.015167 Z"/>
            <path id="path2" fill="#ffffff" stroke="none" d="M 163.480972 47.600677 L 163.480972 85.254486 C 169.81395 77.849792 177.383316 74.14743 186.184982 74.14743 C 190.70256 74.14743 194.777496 74.985626 198.41095 76.662018 C 202.043152 78.338409 204.779053 80.481781 206.618729 83.089508 C 208.458481 85.698578 209.716446 88.585632 210.391312 91.752136 C 211.066193 94.919983 211.404938 99.833069 211.404938 106.492676 L 211.404938 150.015167 L 191.774261 150.015167 L 191.774261 110.824036 C 191.774261 103.046783 191.401733 98.109436 190.656677 96.013275 C 189.910294 93.917145 188.59433 92.252899 186.710007 91.019226 C 184.823135 89.785583 182.459686 89.167389 179.6185 89.167389 C 176.357498 89.167389 173.447479 89.959686 170.885651 91.542938 C 168.323837 93.12619 166.450378 95.513855 165.261292 98.703308 C 164.07486 101.894104 163.480972 106.610107 163.480972 112.849976 L 163.480972 150.015167 L 143.850296 150.015167 L 143.850296 47.600677 L 163.480972 47.600677 Z"/>
            <path id="path3" fill="#ffffff" stroke="none" d="M 273.564667 126.402771 L 293.125153 129.686676 C 290.610596 136.859222 286.638306 142.320282 281.215027 146.069855 C 275.78772 149.818115 268.999878 151.692902 260.850098 151.692902 C 247.947952 151.692902 238.401215 147.477661 232.207169 139.047119 C 227.317078 132.294373 224.872726 123.772095 224.872726 113.478943 C 224.872726 101.184174 228.086441 91.555084 234.512543 84.593079 C 240.940063 77.629761 249.065536 74.14743 258.894348 74.14743 C 269.931213 74.14743 278.641113 77.793091 285.021332 85.080383 C 291.40155 92.370331 294.451996 103.536743 294.172546 118.578308 L 244.992004 118.578308 C 245.130981 124.401093 246.714279 128.929504 249.74173 132.166138 C 252.76918 135.404205 256.541687 137.02121 261.059357 137.02121 C 264.134003 137.02121 266.718811 136.183014 268.813599 134.506622 C 270.909729 132.830231 272.493042 130.129395 273.564667 126.402771 M 274.682251 106.562866 C 274.541962 100.881775 273.07605 96.562622 270.280762 93.602661 C 267.486786 90.646698 264.08548 89.167389 260.082123 89.167389 C 255.796707 89.167389 252.257675 90.729034 249.462296 93.848267 C 246.668396 96.970245 245.294342 101.207123 245.341553 106.562866 L 274.682251 106.562866 Z"/>
            <path id="path4" fill="#ffffff" stroke="none" d="M 105.024902 252.734711 L 105.024902 235.479599 L 149.594772 235.479599 L 149.594772 276.276917 C 145.263474 280.469238 138.987167 284.160797 130.768555 287.35022 C 122.54731 290.539673 114.222092 292.135071 105.792908 292.135071 C 95.081337 292.135071 85.743813 289.889099 77.779015 285.393097 C 69.815491 280.899811 63.829384 274.472321 59.826042 266.112 C 55.820019 257.754395 53.818348 248.659836 53.818348 238.832352 C 53.818348 228.168015 56.053532 218.690125 60.523857 210.399994 C 64.995583 202.109863 71.537766 195.752594 80.154533 191.328125 C 86.721062 187.928101 94.895111 186.22879 104.675316 186.22879 C 117.389915 186.22879 127.321335 188.894531 134.469559 194.227386 C 141.619156 199.560211 146.219101 206.92981 148.268021 216.337524 L 127.728958 220.180237 C 126.284721 215.14975 123.571724 211.180145 119.591362 208.268768 C 115.608246 205.358704 110.635803 203.902344 104.675316 203.902344 C 95.640129 203.902344 88.45681 206.766479 83.123985 212.496155 C 77.789803 218.224457 75.125412 226.723801 75.125412 237.994156 C 75.125412 250.149933 77.826218 259.266113 83.229271 265.345367 C 88.63092 271.421906 95.71032 274.461548 104.46611 274.461548 C 108.797455 274.461548 113.139595 273.612549 117.495201 271.911865 C 121.849449 270.211182 125.585548 268.151489 128.707535 265.728699 L 128.707535 252.734711 L 105.024902 252.734711 Z"/>
            <path id="path5" fill="#ffffff" stroke="none" d="M 182.482666 238.832352 L 164.668762 235.618607 C 166.67038 228.447418 170.117661 223.137512 175.007751 219.69162 C 179.897858 216.245758 187.163513 214.522125 196.803421 214.522125 C 205.559219 214.522125 212.079819 215.558716 216.365234 217.629211 C 220.648026 219.702423 223.664673 222.335785 225.412567 225.525238 C 227.157822 228.714661 228.031082 234.571213 228.031082 243.093491 L 227.821915 266.008087 C 227.821915 272.528687 228.13504 277.33783 228.76535 280.434143 C 229.393005 283.531799 230.568604 286.849487 232.292282 290.388489 L 212.872162 290.388489 C 212.359253 289.085999 211.73027 287.153168 210.985214 284.59137 C 210.658569 283.426514 210.426407 282.658508 210.287354 282.286011 C 206.933258 285.546967 203.347015 287.991364 199.528534 289.620483 C 195.708817 291.249634 191.633881 292.066223 187.302582 292.066223 C 179.664383 292.066223 173.644547 289.994385 169.24437 285.847961 C 164.842865 281.704254 162.642776 276.464539 162.642776 270.130188 C 162.642776 265.937897 163.642944 262.200439 165.645966 258.917877 C 167.648956 255.632614 170.455093 253.118027 174.064316 251.372818 C 177.673508 249.624893 182.878098 248.101044 189.678146 246.79718 C 198.852341 245.073578 205.209671 243.467377 208.750031 241.975891 L 208.750031 240.020126 C 208.750031 236.247604 207.818695 233.557541 205.956039 231.952698 C 204.092072 230.343811 200.575943 229.54071 195.406479 229.54071 C 191.91333 229.54071 189.189529 230.229095 187.233704 231.601776 C 185.276642 232.9758 183.693344 235.386459 182.482666 238.832352 M 208.750031 254.760666 C 206.235397 255.598862 202.253723 256.600372 196.803421 257.765198 C 191.354523 258.930023 187.792511 260.070557 186.114807 261.188171 C 183.552979 263.00354 182.273422 265.308899 182.273422 268.104248 C 182.273422 270.852325 183.297913 273.227844 185.346832 275.229553 C 187.395752 277.232544 190.003387 278.23407 193.171295 278.23407 C 196.710342 278.23407 200.087326 277.069214 203.301132 274.740936 C 205.676605 272.971405 207.235596 270.806396 207.981979 268.243286 C 208.493576 266.566895 208.750031 263.377441 208.750031 258.672241 L 208.750031 254.760666 Z"/>
            <path id="path6" fill="#ffffff" stroke="none" d="M 265.460846 290.388489 L 245.830154 290.388489 L 245.830154 216.197144 L 264.063904 216.197144 L 264.063904 226.74675 C 267.183105 221.763489 269.989197 218.480896 272.480835 216.896301 C 274.972473 215.313049 277.802856 214.520782 280.969391 214.520782 C 285.441071 214.520782 289.748138 215.755768 293.893188 218.223114 L 287.815308 235.339218 C 284.508423 233.197159 281.435089 232.125473 278.593811 232.125473 C 275.845734 232.125473 273.517456 232.884033 271.608917 234.395737 C 269.699066 235.910156 268.195435 238.646088 267.103455 242.604874 C 266.007446 246.563675 265.460846 254.85379 265.460846 267.473907 L 265.460846 290.388489 Z"/>
            <path id="path7" fill="#ffffff" stroke="none" d="M 369.673157 290.388489 L 351.440826 290.388489 L 351.440826 279.490662 C 348.411987 283.728882 344.839264 286.884583 340.71579 288.956421 C 336.596375 291.026917 332.437836 292.06488 328.246826 292.06488 C 319.724579 292.06488 312.423828 288.631134 306.344543 281.759583 C 300.268066 274.890747 297.229736 265.308899 297.229736 253.012741 C 297.229736 240.438538 300.185669 230.879654 306.101593 224.334747 C 312.016205 217.793884 319.491028 214.520782 328.526245 214.520782 C 336.816345 214.520782 343.987579 217.968018 350.04248 224.859802 L 350.04248 187.97403 L 369.673157 187.97403 L 369.673157 290.388489 Z M 317.278839 251.685944 C 317.278839 259.603577 318.373535 265.331848 320.562744 268.870911 C 323.727936 273.994507 328.153717 276.556335 333.836182 276.556335 C 338.352356 276.556335 342.195129 274.634277 345.362946 270.792908 C 348.528076 266.950195 350.112671 261.21109 350.112671 253.571548 C 350.112671 245.049271 348.575348 238.91333 345.502014 235.1651 C 342.428589 231.415512 338.492737 229.54071 333.695801 229.54071 C 329.037842 229.54071 325.138397 231.392563 321.993469 235.093552 C 318.851257 238.798615 317.278839 244.328506 317.278839 251.685944"/>
            <path id="path8" fill="#ffffff" stroke="none" d="M 431.272766 266.776093 L 450.833252 270.059998 C 448.318726 277.232544 444.346436 282.693604 438.923157 286.443207 C 433.49585 290.191437 426.707977 292.066223 418.558197 292.066223 C 405.655975 292.066223 396.109253 287.850983 389.915283 279.420471 C 385.025177 272.667725 382.58075 264.145447 382.58075 253.852295 C 382.58075 241.55748 385.794556 231.928406 392.220642 224.966431 C 398.648163 218.003113 406.77356 214.520782 416.602448 214.520782 C 427.639221 214.520782 436.349121 218.166412 442.729431 225.45369 C 449.10965 232.743652 452.160095 243.910095 451.880646 258.95163 L 402.700043 258.95163 C 402.839081 264.774414 404.422302 269.302795 407.449829 272.53949 C 410.477295 275.777527 414.249786 277.394531 418.767365 277.394531 C 421.842102 277.394531 424.42691 276.556335 426.521729 274.879944 C 428.617859 273.203552 430.20105 270.502747 431.272766 266.776093 M 432.39035 246.936203 C 432.249969 241.255127 430.784149 236.935959 427.988861 233.975983 C 425.194885 231.020035 421.793488 229.54071 417.790161 229.54071 C 413.50473 229.54071 409.965698 231.102356 407.17041 234.221619 C 404.376434 237.343582 403.00238 241.580414 403.049652 246.936203 L 432.39035 246.936203 Z"/>
            <path id="path9" fill="#ffffff" stroke="none" d="M 534.648254 290.388489 L 515.017578 290.388489 L 515.017578 252.524139 C 515.017578 244.514771 514.599182 239.333099 513.759705 236.981842 C 512.921448 234.629242 511.559601 232.801697 509.673981 231.49649 C 507.787018 230.192642 505.516815 229.54071 502.861816 229.54071 C 499.461823 229.54071 496.411407 230.472031 493.710602 232.334686 C 491.008392 234.198685 489.157837 236.666016 488.157745 239.740723 C 487.153503 242.814087 486.654114 248.496521 486.654114 256.785278 L 486.654114 290.388489 L 467.023407 290.388489 L 467.023407 216.197144 L 485.257141 216.197144 L 485.257141 227.094971 C 491.730469 218.711731 499.880249 214.520782 509.707733 214.520782 C 514.039063 214.520782 517.997803 215.300903 521.584167 216.861206 C 525.17041 218.422882 527.882019 220.412384 529.723083 222.833832 C 531.562805 225.256622 532.842346 228.003357 533.565735 231.078079 C 534.286499 234.151428 534.648254 238.552948 534.648254 244.281265 L 534.648254 290.388489 Z"/>
            <path id="path10" fill="#ffffff" stroke="none" d="M 596.808044 266.776093 L 616.36853 270.059998 C 613.853943 277.232544 609.881653 282.693604 604.458374 286.443207 C 599.031067 290.191437 592.243164 292.066223 584.093384 292.066223 C 571.191284 292.066223 561.644531 287.850983 555.450562 279.420471 C 550.560364 272.667725 548.116028 264.145447 548.116028 253.852295 C 548.116028 241.55748 551.329773 231.928406 557.755859 224.966431 C 564.18335 218.003113 572.308838 214.520782 582.137695 214.520782 C 593.1745 214.520782 601.884399 218.166412 608.264648 225.45369 C 614.644897 232.743652 617.695313 243.910095 617.415955 258.95163 L 568.235352 258.95163 C 568.374329 264.774414 569.957581 269.302795 572.985046 272.53949 C 576.012512 275.777527 579.785095 277.394531 584.302673 277.394531 C 587.37738 277.394531 589.962097 276.556335 592.056946 274.879944 C 594.153076 273.203552 595.736328 270.502747 596.808044 266.776093 M 597.925659 246.936203 C 597.785278 241.255127 596.319458 236.935959 593.524048 233.975983 C 590.730164 231.020035 587.328796 229.54071 583.325439 229.54071 C 579.040039 229.54071 575.500977 231.102356 572.705688 234.221619 C 569.911682 237.343582 568.537659 241.580414 568.584839 246.936203 L 597.925659 246.936203 Z"/>
            <path id="path11" fill="#ffffff" stroke="none" d="M 651.491516 290.388489 L 631.86084 290.388489 L 631.86084 216.197144 L 650.094604 216.197144 L 650.094604 226.74675 C 653.213806 221.763489 656.019897 218.480896 658.511536 216.896301 C 661.003174 215.313049 663.833557 214.520782 667.000061 214.520782 C 671.471741 214.520782 675.77887 215.755768 679.923889 218.223114 L 673.846008 235.339218 C 670.539124 233.197159 667.465759 232.125473 664.624512 232.125473 C 661.876526 232.125473 659.548157 232.884033 657.639587 234.395737 C 655.729736 235.910156 654.226135 238.646088 653.134155 242.604874 C 652.038208 246.563675 651.491516 254.85379 651.491516 267.473907 L 651.491516 290.388489 Z"/>
            <path id="path12" fill="#ffffff" stroke="none" d="M 680.744568 269.221802 L 700.445374 266.217285 C 701.283569 270.037079 702.98291 272.93631 705.544739 274.915039 C 708.105225 276.896484 711.69281 277.88446 716.303528 277.88446 C 721.378601 277.88446 725.198364 276.954529 727.760132 275.090515 C 729.482361 273.786682 730.34491 272.0401 730.34491 269.8508 C 730.34491 268.360687 729.87793 267.125671 728.947876 266.148468 C 727.96936 265.217133 725.78009 264.356018 722.381409 263.56369 C 706.544922 260.070557 696.509583 256.879761 692.271362 253.992661 C 686.402649 249.987976 683.469666 244.421646 683.469666 237.296341 C 683.469666 230.868866 686.005798 225.467194 691.083557 221.088623 C 696.159912 216.711395 704.030273 214.522125 714.695984 214.522125 C 724.848755 214.522125 732.39386 216.175568 737.331177 219.481079 C 742.267212 222.789307 745.667175 227.679413 747.529846 234.152786 L 729.018066 237.575729 C 728.22583 234.688644 726.722168 232.475067 724.511292 230.939056 C 722.299133 229.401688 719.143372 228.633682 715.045532 228.633682 C 709.876038 228.633682 706.173706 229.355804 703.938538 230.798676 C 702.447083 231.824478 701.702026 233.151276 701.702026 234.780411 C 701.702026 236.178741 702.353882 237.365173 703.65918 238.343735 C 705.427307 239.648941 711.540283 241.487289 721.995361 243.862854 C 732.451843 246.238388 739.752625 249.14978 743.897705 252.595688 C 747.995483 256.088806 750.045776 260.955994 750.045776 267.195862 C 750.045776 273.99585 747.203186 279.840271 741.522156 284.730377 C 735.839722 289.620483 727.433472 292.066223 716.303528 292.066223 C 706.195251 292.066223 698.198059 290.017334 692.306458 285.918152 C 686.413452 281.820313 682.561279 276.255341 680.744568 269.221802"/>
            <path id="path13" fill="#ffffff" stroke="none" d="M 105.024902 393.108032 L 105.024902 375.852905 L 149.594772 375.852905 L 149.594772 416.650269 C 145.263474 420.84256 138.987167 424.534119 130.768555 427.723572 C 122.54731 430.912994 114.222092 432.508392 105.792908 432.508392 C 95.081337 432.508392 85.743813 430.262421 77.779015 425.766418 C 69.815491 421.273132 63.829384 414.845642 59.826042 406.485352 C 55.820019 398.127747 53.818348 389.033173 53.818348 379.205688 C 53.818348 368.541351 56.053532 359.063446 60.523857 350.773315 C 64.995583 342.483215 71.537766 336.125916 80.154533 331.701447 C 86.721062 328.301453 94.895111 326.602112 104.675316 326.602112 C 117.389915 326.602112 127.321335 329.267883 134.469559 334.600708 C 141.619156 339.934875 146.219101 347.303162 148.268021 356.710876 L 127.728958 360.553558 C 126.284721 355.523071 123.571724 351.553467 119.591362 348.642059 C 115.608246 345.732056 110.635803 344.275665 104.675316 344.275665 C 95.640129 344.275665 88.45681 347.139832 83.123985 352.869507 C 77.789803 358.597778 75.125412 367.097107 75.125412 378.367493 C 75.125412 390.523285 77.826218 399.639465 83.229271 405.718689 C 88.63092 411.795227 95.71032 414.834869 104.46611 414.834869 C 108.797455 414.834869 113.139595 413.98587 117.495201 412.285187 C 121.849449 410.584534 125.585548 408.524841 128.707535 406.10202 L 128.707535 393.108032 L 105.024902 393.108032 Z"/>
            <path id="path14" fill="#ffffff" stroke="none" d="M 216.644669 430.76181 L 216.644669 419.654785 C 213.942474 423.613586 210.391312 426.734222 205.991135 429.015289 C 201.589645 431.296326 196.943802 432.438202 192.053711 432.438202 C 187.070435 432.438202 182.59874 431.343567 178.641281 429.155609 C 174.681152 426.96637 171.816986 423.892975 170.048828 419.934174 C 168.277939 415.975403 167.39386 410.502197 167.39386 403.5159 L 167.39386 356.570496 L 187.024536 356.570496 L 187.024536 390.662292 C 187.024536 401.095795 187.38356 407.48822 188.10704 409.838135 C 188.829117 412.190704 190.143768 414.054688 192.053711 415.427399 C 193.96225 416.801453 196.38501 417.488464 199.319366 417.488464 C 202.67215 417.488464 205.676605 416.569275 208.331604 414.72821 C 210.986526 412.889862 212.801971 410.607483 213.780502 407.882324 C 214.759033 405.158539 215.24765 398.486755 215.24765 387.868347 L 215.24765 356.570496 L 234.878326 356.570496 L 234.878326 430.76181 L 216.644669 430.76181 Z"/>
            <path id="path15" fill="#ffffff" stroke="none" d="M 254.492859 328.347351 L 274.123444 328.347351 L 274.123444 346.510864 L 254.492859 346.510864 L 254.492859 328.347351 Z M 254.492859 356.571808 L 274.123444 356.571808 L 274.123444 430.763184 L 254.492859 430.763184 L 254.492859 356.571808 Z"/>
            <path id="path16" fill="#ffffff" stroke="none" d="M 293.527405 328.347351 L 313.158081 328.347351 L 313.158081 430.76181 L 293.527405 430.76181 Z"/>
            <path id="path17" fill="#ffffff" stroke="none" d="M 400.603912 430.763184 L 382.371582 430.763184 L 382.371582 419.865356 C 379.342743 424.103546 375.769989 427.259216 371.646545 429.331085 C 367.52713 431.401611 363.368561 432.439575 359.177551 432.439575 C 350.655334 432.439575 343.354584 429.005798 337.275299 422.134247 C 331.19873 415.265442 328.160492 405.683594 328.160492 393.387421 C 328.160492 380.813232 331.116425 371.254333 337.032349 364.709442 C 342.94693 358.168579 350.421783 354.895447 359.457001 354.895447 C 367.74707 354.895447 374.918243 358.342682 380.973236 365.234467 L 380.973236 328.348694 L 400.603912 328.348694 L 400.603912 430.763184 Z M 348.209564 392.059296 C 348.209564 399.976898 349.304169 405.7052 351.493469 409.244232 C 354.658661 414.367828 359.084473 416.929657 364.766846 416.929657 C 369.283081 416.929657 373.125793 415.007629 376.293701 411.16626 C 379.458801 407.323547 381.043427 401.584412 381.043427 393.944885 C 381.043427 385.422577 379.506104 379.286652 376.432678 375.538391 C 373.359344 371.788849 369.423462 369.914032 364.626465 369.914032 C 359.968506 369.914032 356.069122 371.7659 352.924194 375.466919 C 349.782013 379.170593 348.209564 384.703186 348.209564 392.059296"/>
            <path id="path18" fill="#ffffff" stroke="none" d="M 400.593109 430.7659 L 382.358063 430.7659 L 382.358063 419.873444 C 379.334656 424.111633 375.757813 427.270081 371.627594 429.335175 C 367.510895 431.400269 363.353668 432.439575 359.155975 432.439575 C 350.639099 432.439575 343.337036 429.0112 337.249664 422.141022 C 331.175812 415.270813 328.138885 405.687622 328.138885 393.391479 C 328.138885 381.095306 331.094849 371.255707 337.006714 364.709442 C 342.91861 358.163177 350.396149 354.89679 359.425934 354.89679 C 367.713379 354.89679 374.894043 358.338654 380.940857 365.23584 L 380.940857 328.347351 L 400.566101 328.347351 L 400.566101 430.7659 L 400.593109 430.7659 Z M 348.196075 392.068726 C 348.196075 399.99173 349.289368 405.714661 351.475922 409.250977 C 354.647888 414.380005 359.061493 416.93103 364.743927 416.93103 C 369.265533 416.93103 373.098846 415.014374 376.270721 411.167603 C 379.442657 407.320801 381.021851 401.584412 381.021851 393.944885 C 381.021851 385.428009 379.483124 379.286652 376.405731 375.534363 C 373.328278 371.782104 369.400574 369.905975 364.59549 369.905975 C 359.790405 369.905975 356.038086 371.755096 352.893158 375.4534 C 349.748291 379.151672 348.182556 384.685638 348.182556 392.041748 L 348.196075 392.068726 Z"/>
            <path id="path19" fill="#ffffff" stroke="none" d="M 416.020691 348.768982 L 416.020691 331.802673 L 409.960358 331.802673 L 409.960358 328.347351 L 426.184296 328.347351 L 426.184296 331.802673 L 420.13739 331.802673 L 420.13739 348.768982 Z"/>
            <path id="path20" fill="#ffffff" stroke="none" d="M 428.640747 348.768982 L 428.640747 328.347351 L 434.809082 328.347351 L 438.507385 342.276733 L 442.165192 328.347351 L 448.347046 328.347351 L 448.347046 348.768982 L 444.513733 348.768982 L 444.513733 332.693542 L 440.464508 348.768982 L 436.496277 348.768982 L 432.460541 332.693542 L 432.460541 348.768982 L 428.627319 348.768982 Z"/>
        </g>
    </g>
</svg>
